<?xml version="1.0"?>
<svg xmlns="http://www.w3.org/2000/svg" xmlns:xlink="http://www.w3.org/1999/xlink" xmlns:svgjs="http://svgjs.com/svgjs" version="1.1" width="512" height="512" x="0" y="0" viewBox="0 0 512 512" style="enable-background:new 0 0 512 512" xml:space="preserve" class=""><g transform="matrix(-7.531577814756223e-17,0.41000000000000003,-0.41000000000000003,-7.531577814756223e-17,360.9600000000001,151.0399999999999)">
<g xmlns="http://www.w3.org/2000/svg">
	<g>
		<path d="M256,0C115.04,0,0,115.049,0,256c0,140.96,115.049,256,256,256c140.96,0,256-115.049,256-256C512,115.04,396.951,0,256,0z     M75.299,120.42c25.976,34.848,41.345,76.737,44.208,120.58H30.51C33.477,195.952,49.69,154.466,75.299,120.42z M30.51,271h88.997    c-2.86,43.872-18.226,85.733-44.209,120.579C49.69,357.533,33.477,316.048,30.51,271z M241,481.49    c-56.822-3.742-107.97-28.571-145.675-66.725c32.285-41.012,51.196-91.172,54.228-143.765H241V481.49z M241,241h-91.448    c-3.035-52.558-21.948-102.758-54.223-143.769C133.033,59.079,184.18,34.252,241,30.51V241z M481.49,241h-88.997    c2.86-43.872,18.226-85.733,44.209-120.579C462.31,154.467,478.523,195.952,481.49,241z M271,30.51    c56.822,3.742,107.97,28.571,145.675,66.725C384.39,138.247,365.479,188.406,362.447,241H271V30.51z M271,481.49V271h91.448    c3.038,52.522,21.958,102.759,54.223,143.768C378.967,452.921,327.82,477.748,271,481.49z M436.696,391.586    c-25.969-34.85-41.338-76.771-44.204-120.586h88.998C478.523,316.051,462.308,357.539,436.696,391.586z" fill="#edf0f1" data-original="#000000" style="" class=""/>
	</g>
</g>
<g xmlns="http://www.w3.org/2000/svg">
</g>
<g xmlns="http://www.w3.org/2000/svg">
</g>
<g xmlns="http://www.w3.org/2000/svg">
</g>
<g xmlns="http://www.w3.org/2000/svg">
</g>
<g xmlns="http://www.w3.org/2000/svg">
</g>
<g xmlns="http://www.w3.org/2000/svg">
</g>
<g xmlns="http://www.w3.org/2000/svg">
</g>
<g xmlns="http://www.w3.org/2000/svg">
</g>
<g xmlns="http://www.w3.org/2000/svg">
</g>
<g xmlns="http://www.w3.org/2000/svg">
</g>
<g xmlns="http://www.w3.org/2000/svg">
</g>
<g xmlns="http://www.w3.org/2000/svg">
</g>
<g xmlns="http://www.w3.org/2000/svg">
</g>
<g xmlns="http://www.w3.org/2000/svg">
</g>
<g xmlns="http://www.w3.org/2000/svg">
</g>
<style/></g></svg>
